<svg width="228" height="50" viewBox="0 0 228 50" fill="none" xmlns="http://www.w3.org/2000/svg">
<path d="M0 34.608V5.808C0 4.752 0.256 3.792 0.768 2.928C1.28 2.032 1.968 1.328 2.832 0.815998C3.728 0.303999 4.704 0.0479994 5.76 0.0479994H28.8C29.856 0.0479994 30.816 0.303999 31.68 0.815998C32.576 1.328 33.28 2.032 33.792 2.928C34.304 3.792 34.56 4.752 34.56 5.808V34.608H30.672V21.984H3.888V34.608H0ZM3.888 18.096H30.672V5.808C30.672 5.296 30.48 4.864 30.096 4.512C29.744 4.128 29.312 3.936 28.8 3.936H5.76C5.248 3.936 4.8 4.128 4.416 4.512C4.064 4.864 3.888 5.296 3.888 5.808V18.096Z" fill="#E17100"/>
<path d="M40.029 34.608V0.0959988H68.829C69.885 0.0959988 70.845 0.367999 71.709 0.912C72.605 1.424 73.309 2.112 73.821 2.976C74.333 3.84 74.589 4.8 74.589 5.856V15.984C74.589 17.04 74.333 18 73.821 18.864C73.309 19.728 72.605 20.432 71.709 20.976C70.845 21.488 69.885 21.744 68.829 21.744H43.917V34.608H40.029ZM45.789 17.808H68.829C69.341 17.808 69.773 17.632 70.125 17.28C70.509 16.928 70.701 16.496 70.701 15.984V5.856C70.701 5.344 70.509 4.912 70.125 4.56C69.773 4.176 69.341 3.984 68.829 3.984H45.789C45.277 3.984 44.829 4.176 44.445 4.56C44.093 4.912 43.917 5.344 43.917 5.856V15.984C43.917 16.496 44.093 16.928 44.445 17.28C44.829 17.632 45.277 17.808 45.789 17.808Z" fill="#E17100"/>
<path d="M83.6618 34.608C82.6058 34.608 81.6297 34.352 80.7337 33.84C79.8698 33.328 79.1817 32.64 78.6697 31.776C78.1577 30.88 77.9017 29.904 77.9017 28.848V5.808C77.9017 4.752 78.1577 3.792 78.6697 2.928C79.1817 2.032 79.8698 1.328 80.7337 0.815998C81.6297 0.303999 82.6058 0.0479994 83.6618 0.0479994H106.702C107.758 0.0479994 108.718 0.303999 109.582 0.815998C110.478 1.328 111.182 2.032 111.694 2.928C112.206 3.792 112.462 4.752 112.462 5.808V28.848C112.462 29.904 112.206 30.88 111.694 31.776C111.182 32.64 110.478 33.328 109.582 33.84C108.718 34.352 107.758 34.608 106.702 34.608H83.6618ZM83.6618 30.72H106.702C107.214 30.72 107.646 30.544 107.998 30.192C108.382 29.808 108.574 29.36 108.574 28.848V5.808C108.574 5.296 108.382 4.864 107.998 4.512C107.646 4.128 107.214 3.936 106.702 3.936H83.6618C83.1497 3.936 82.7018 4.128 82.3177 4.512C81.9658 4.864 81.7897 5.296 81.7897 5.808V28.848C81.7897 29.36 81.9658 29.808 82.3177 30.192C82.7018 30.544 83.1497 30.72 83.6618 30.72Z" fill="#E17100"/>
<path d="M117.796 34.608V0H121.684V30.72H152.356V34.608H117.796Z" fill="#E17100"/>
<path d="M155.202 34.608V0H159.09V30.72H189.762V34.608H155.202Z" fill="#E17100"/>
<path d="M198.224 34.608C197.168 34.608 196.192 34.352 195.296 33.84C194.432 33.328 193.744 32.64 193.232 31.776C192.72 30.88 192.464 29.904 192.464 28.848V5.808C192.464 4.752 192.72 3.792 193.232 2.928C193.744 2.032 194.432 1.328 195.296 0.815998C196.192 0.303999 197.168 0.0479994 198.224 0.0479994H221.264C222.32 0.0479994 223.28 0.303999 224.144 0.815998C225.04 1.328 225.744 2.032 226.256 2.928C226.768 3.792 227.024 4.752 227.024 5.808V28.848C227.024 29.904 226.768 30.88 226.256 31.776C225.744 32.64 225.04 33.328 224.144 33.84C223.28 34.352 222.32 34.608 221.264 34.608H198.224ZM198.224 30.72H221.264C221.776 30.72 222.208 30.544 222.56 30.192C222.944 29.808 223.136 29.36 223.136 28.848V5.808C223.136 5.296 222.944 4.864 222.56 4.512C222.208 4.128 221.776 3.936 221.264 3.936H198.224C197.712 3.936 197.264 4.128 196.88 4.512C196.528 4.864 196.352 5.296 196.352 5.808V28.848C196.352 29.36 196.528 29.808 196.88 30.192C197.264 30.544 197.712 30.72 198.224 30.72Z" fill="#E17100"/>
<path d="M145.802 49.6079H144.24L142.052 45.6079H141.552L141.568 49.6079H140.365V40.6548H145.005V45.6079H143.63L145.802 49.6079ZM143.755 44.4829V41.7642H141.552V44.4829H143.755ZM152.833 48.3892V49.6079H147.88V40.6548L152.833 40.6392V41.7642H149.068V43.7017H152.833V44.8267H149.068V48.3892H152.833ZM156.583 48.436H159.099V46.9517L155.396 44.811V40.6548H160.349V43.2017H159.177V41.811H156.646V43.686L160.318 45.811V49.5923L155.396 49.6079V47.0454H156.583V48.436ZM166.021 49.6079H164.833V41.7954H162.896V40.6548H167.865V41.7954H166.021V49.6079ZM171.615 41.7642V44.4829H174.13V41.7642H171.615ZM175.38 49.6079H174.13V45.6079H171.615V49.6079H170.427V40.6548H175.38V49.6079ZM182.896 40.6548V49.6079H177.943V40.6548H179.13V48.4829H181.646V40.6548H182.896ZM190.896 49.6079H189.333L187.146 45.6079H186.646L186.661 49.6079H185.458V40.6548H190.099V45.6079H188.724L190.896 49.6079ZM188.849 44.4829V41.7642H186.646V44.4829H188.849ZM194.161 41.7642V44.4829H196.677V41.7642H194.161ZM197.927 49.6079H196.677V45.6079H194.161V49.6079H192.974V40.6548H197.927V49.6079ZM201.63 40.6392L204.193 45.6079V40.6548H205.443V49.6079H204.505L201.677 44.0142V49.6079H200.49V40.6548L201.63 40.6392ZM211.115 49.6079H209.927V41.7954H207.99V40.6548H212.958V41.7954H211.115V49.6079ZM220.474 48.3892V49.6079H215.521V40.6548L220.474 40.6392V41.7642H216.708V43.7017H220.474V44.8267H216.708V48.3892H220.474Z" fill="#060606"/>
<path d="M82.4192 40.6079L108.419 40.6079L82.4192 40.6079Z" fill="#030303"/>
<path d="M82.4192 40.6079L108.419 40.6079" stroke="black" stroke-width="3" stroke-linecap="round"/>
</svg>
