<svg width="34" height="29" viewBox="0 0 34 29" fill="none" xmlns="http://www.w3.org/2000/svg">
<g clip-path="url(#clip0_2202_116)">
<path d="M16.187 0L8.97864 9.28072H15.8266C16.187 9.28072 16.187 9.28072 16.187 9.01041V0Z" fill="#F2F2F2"/>
<path d="M16.9218 0L24.1301 9.28072H17.2822C16.9218 9.28072 16.9218 9.28072 16.9218 9.01041V0Z" fill="#F2F2F2"/>
<path d="M16.9218 19.2197L24.1301 9.939H17.2822C16.9218 9.939 16.9218 9.939 16.9218 10.2093V19.2197Z" fill="#F2F2F2"/>
<path d="M16.187 19.2197L8.97864 9.939H15.8266C16.187 9.939 16.187 9.939 16.187 10.2093V19.2197Z" fill="#F2F2F2"/>
<path d="M8.5577 10.6621L15.7827 19.9214H8.91895C8.5577 19.9214 8.5577 19.9213 8.5577 19.6517V10.6621Z" fill="#F2F2F2"/>
<path d="M24.5343 10.6621L17.3259 19.9428H24.1738C24.5343 19.9428 24.5343 19.9428 24.5343 19.6725V10.6621Z" fill="#F2F2F2"/>
<path d="M25.2692 10.6621L32.4775 19.9428H25.6296C25.2692 19.9428 25.2692 19.9428 25.2692 19.6725V10.6621Z" fill="#F2F2F2"/>
<path d="M7.83968 10.6621L0.631348 19.9428H7.47926C7.83968 19.9428 7.83968 19.9428 7.83968 19.6725V10.6621Z" fill="#F2F2F2"/>
<rect y="23.2886" width="33.1088" height="4.48933" rx="0.210437" fill="#F2F2F2"/>
</g>
<defs>
<clipPath id="clip0_2202_116">
<rect width="33.75" height="28.3125" fill="white"/>
</clipPath>
</defs>
</svg>
