<svg width="32" height="32" viewBox="0 0 32 32" fill="none" xmlns="http://www.w3.org/2000/svg">
<path d="M13.2496 20.6666C13.1305 20.2052 12.89 19.7841 12.5531 19.4471C12.2161 19.1101 11.795 18.8696 11.3336 18.7506L3.15358 16.6413C3.01402 16.6016 2.89119 16.5176 2.80373 16.4019C2.71627 16.2861 2.66895 16.145 2.66895 15.9999C2.66895 15.8549 2.71627 15.7137 2.80373 15.598C2.89119 15.4823 3.01402 15.3982 3.15358 15.3586L11.3336 13.2479C11.7948 13.129 12.2158 12.8887 12.5528 12.552C12.8897 12.2153 13.1303 11.7944 13.2496 11.3333L15.3589 3.15326C15.3981 3.01315 15.4821 2.88971 15.598 2.80178C15.7139 2.71386 15.8554 2.66626 16.0009 2.66626C16.1464 2.66626 16.2879 2.71386 16.4038 2.80178C16.5197 2.88971 16.6037 3.01315 16.6429 3.15326L18.7509 11.3333C18.8699 11.7947 19.1105 12.2158 19.4474 12.5527C19.7844 12.8897 20.2055 13.1302 20.6669 13.2493L28.8469 15.3573C28.9876 15.3961 29.1116 15.4799 29.2 15.596C29.2884 15.7121 29.3363 15.854 29.3363 15.9999C29.3363 16.1458 29.2884 16.2877 29.2 16.4038C29.1116 16.5199 28.9876 16.6038 28.8469 16.6426L20.6669 18.7506C20.2055 18.8696 19.7844 19.1101 19.4474 19.4471C19.1105 19.7841 18.8699 20.2052 18.7509 20.6666L16.6416 28.8466C16.6024 28.9867 16.5184 29.1101 16.4025 29.1981C16.2866 29.286 16.1451 29.3336 15.9996 29.3336C15.8541 29.3336 15.7126 29.286 15.5967 29.1981C15.4808 29.1101 15.3968 28.9867 15.3576 28.8466L13.2496 20.6666Z" stroke="#E17100" stroke-width="2.66667" stroke-linecap="round" stroke-linejoin="round"/>
<path d="M26.667 4V9.33333" stroke="#E17100" stroke-width="2.66667" stroke-linecap="round" stroke-linejoin="round"/>
<path d="M29.3333 6.66675H24" stroke="#E17100" stroke-width="2.66667" stroke-linecap="round" stroke-linejoin="round"/>
<path d="M5.33301 22.6667V25.3334" stroke="#E17100" stroke-width="2.66667" stroke-linecap="round" stroke-linejoin="round"/>
<path d="M6.66667 24H4" stroke="#E17100" stroke-width="2.66667" stroke-linecap="round" stroke-linejoin="round"/>
</svg>
